<?xml version="1.0" encoding="iso-8859-1"?>
<!-- Generator: Adobe Illustrator 19.1.0, SVG Export Plug-In . SVG Version: 6.00 Build 0)  -->
<svg xmlns="http://www.w3.org/2000/svg" xmlns:xlink="http://www.w3.org/1999/xlink" version="1.1" id="Capa_1" x="0px" y="0px" viewBox="0 0 498.853 498.853" style="enable-background:new 0 0 498.853 498.853;" xml:space="preserve" width="512px" height="512px">
<g>
	<g id="Dollar_2_">
		<g>
			<path d="M476.178,113.376L476.178,113.376L476.178,113.376H90.701l0,0l0,0H68.025v45.35h22.675l0,0     c12.517,0,22.675-10.158,22.675-22.675h340.127c0,12.517,10.158,22.675,22.675,22.675v124.713     c-12.517,0-22.675,10.158-22.675,22.675v22.675h45.35V113.376H476.178z M225.255,230.47h-0.952v-15.056h-17.664v15.056h-0.952     c-12.97,0-24.285,9.297-24.285,21.609v18.458c0,10.816,10.453,19.501,22.947,19.501h2.29v30.045     c-4.014-0.658-7.188-3.764-7.188-7.392v-7.483h-18.027v9.592c0,12.313,11.292,21.609,24.285,21.609h0.952v15.056h17.664v-15.056     h0.952c12.97,0,24.262-9.456,24.262-21.609v-20.544c0-10.363-9.614-19.365-21.745-19.365h-3.492v-28.072     c4.082,0.68,7.188,3.628,7.188,7.211v7.8h18.027v-9.75C249.54,240.22,238.225,230.47,225.255,230.47z M206.639,274.664     c-4.014-0.522-7.188-3.038-7.188-6.372V254.03c0-3.605,3.265-6.598,7.188-7.233V274.664z M231.491,297.543v15.17     c0,3.719-3.107,6.689-7.188,7.369v-29.614C228.452,291.398,231.491,294.21,231.491,297.543z M408.153,181.401L408.153,181.401     H22.675l0,0l0,0H0v204.076h430.828V181.401H408.153L408.153,181.401z M408.153,340.127c-12.517,0-22.675,10.158-22.675,22.675     H45.35c0-12.517-10.158-22.675-22.675-22.675V226.751c12.517,0,22.675-10.158,22.675-22.675h340.127     c0,12.517,10.158,22.675,22.675,22.675V340.127z" fill="#007ea7"/>
		</g>
	</g>
</g>
<g>
</g>
<g>
</g>
<g>
</g>
<g>
</g>
<g>
</g>
<g>
</g>
<g>
</g>
<g>
</g>
<g>
</g>
<g>
</g>
<g>
</g>
<g>
</g>
<g>
</g>
<g>
</g>
<g>
</g>
</svg>
